<?xml version="1.0" encoding="utf-8"?>
<!-- Generator: Adobe Illustrator 23.0.2, SVG Export Plug-In . SVG Version: 6.00 Build 0)  -->
<svg version="1.1" id="Layer_1" xmlns="http://www.w3.org/2000/svg" xmlns:xlink="http://www.w3.org/1999/xlink" x="0px" y="0px"
	 viewBox="0 0 300 300" style="enable-background:new 0 0 300 300;" xml:space="preserve">
<style type="text/css">
	.st0{fill:url(#SVGID_1_);}
</style>
<rect width="300" height="300"/>
<g transform="matrix(2.9854172483178147,0,0,2.9854172483178147,19.07452064590369,169.37432465319282)">
	<path d="M3.6,3.5L3.6,3.5c-0.5,0-0.8,0.1-1.1,0.4l0,0l0,0C2.3,4.2,2.1,4.6,2.1,5.1l0,0v1.2h2.4v0.4H2.1v6.9H1.7V6.7H0.3V6.3h1.4V5
		l0,0c0-0.6,0.2-1,0.5-1.4l0,0l0,0C2.5,3.3,3,3.1,3.5,3.1l0,0l0,0c0.3,0,0.6,0,0.8,0.1l0,0l0,0C4.6,3.3,4.8,3.5,5,3.6l0,0L4.8,4l0,0
		C4.4,3.7,4,3.5,3.6,3.5L3.6,3.5z M6.5,8L6.5,8C6.7,7.5,7,7,7.5,6.7l0,0l0,0C8,6.4,8.6,6.2,9.3,6.2l0,0v0.5H9.2l0,0
		c-0.8,0-1.5,0.3-2,0.8l0,0l0,0C6.7,8,6.5,8.8,6.5,9.7l0,0v3.9H6V6.3h0.4V8z M14.2,13.6L14.2,13.6c-0.7,0-1.3-0.2-1.8-0.5l0,0l0,0
		c-0.5-0.3-1-0.8-1.3-1.3l0,0l0,0c-0.3-0.6-0.5-1.2-0.5-1.9l0,0l0,0c0-0.7,0.2-1.3,0.5-1.9l0,0l0,0c0.3-0.6,0.7-1,1.3-1.3l0,0l0,0
		c0.5-0.3,1.1-0.5,1.8-0.5l0,0l0,0c0.7,0,1.3,0.2,1.8,0.5l0,0l0,0C16.6,7,17,7.5,17.3,8l0,0l0,0c0.3,0.6,0.5,1.2,0.5,1.9l0,0l0,0
		c0,0.7-0.2,1.3-0.5,1.9l0,0l0,0c-0.3,0.6-0.7,1-1.3,1.3l0,0l0,0C15.5,13.4,14.9,13.6,14.2,13.6L14.2,13.6z M14.2,13.2L14.2,13.2
		c0.6,0,1.1-0.1,1.6-0.4l0,0l0,0c0.5-0.3,0.8-0.7,1.1-1.2l0,0l0,0c0.3-0.5,0.4-1.1,0.4-1.7l0,0l0,0c0-0.6-0.1-1.2-0.4-1.7l0,0l0,0
		c-0.3-0.5-0.6-0.9-1.1-1.1l0,0l0,0c-0.5-0.3-1-0.4-1.6-0.4l0,0l0,0c-0.6,0-1.1,0.1-1.6,0.4l0,0l0,0c-0.5,0.3-0.8,0.7-1.1,1.1l0,0
		l0,0c-0.3,0.5-0.4,1.1-0.4,1.7l0,0l0,0c0,0.6,0.1,1.2,0.4,1.7l0,0l0,0c0.3,0.5,0.6,0.9,1.1,1.2l0,0l0,0
		C13.1,13,13.6,13.2,14.2,13.2L14.2,13.2z M23.5,6.2L23.5,6.2c0.9,0,1.6,0.3,2.2,0.8l0,0l0,0c0.5,0.5,0.8,1.3,0.8,2.3l0,0v4.3h-0.5
		V9.3l0,0c0-0.9-0.2-1.5-0.6-2l0,0l0,0c-0.4-0.5-1.1-0.7-1.9-0.7l0,0l0,0c-0.9,0-1.6,0.3-2.1,0.8l0,0l0,0c-0.5,0.5-0.8,1.3-0.8,2.2
		l0,0v3.9H20V6.3h0.4v1.8l0,0c0.2-0.6,0.6-1,1.1-1.3l0,0l0,0C22.1,6.4,22.7,6.2,23.5,6.2L23.5,6.2z M32.6,12.8l0.2,0.3l0,0
		c-0.2,0.2-0.4,0.3-0.6,0.4l0,0l0,0c-0.3,0.1-0.5,0.1-0.8,0.1l0,0l0,0c-0.6,0-1-0.2-1.4-0.5l0,0l0,0c-0.3-0.3-0.5-0.8-0.5-1.4l0,0
		v-5h-1.4V6.3h1.4V4.7H30v1.6h2.4v0.4H30v5l0,0c0,0.5,0.1,0.9,0.4,1.1l0,0l0,0c0.2,0.3,0.6,0.4,1.1,0.4l0,0l0,0
		C31.9,13.2,32.3,13,32.6,12.8L32.6,12.8z M38.3,6.2L38.3,6.2c0.9,0,1.6,0.3,2.1,0.8l0,0l0,0c0.5,0.5,0.8,1.3,0.8,2.3l0,0v4.3h-0.5
		V9.3l0,0c0-0.9-0.2-1.5-0.7-2l0,0l0,0c-0.4-0.5-1-0.7-1.8-0.7l0,0l0,0c-0.9,0-1.6,0.3-2.1,0.8l0,0l0,0c-0.5,0.5-0.8,1.3-0.8,2.2
		l0,0v3.9h-0.5V6.3h0.4v1.8l0,0c0.2-0.6,0.6-1,1.1-1.3l0,0l0,0C37,6.4,37.6,6.2,38.3,6.2L38.3,6.2z M50.1,3.2h0.5v10.4h-0.4v-2l0,0
		c-0.3,0.6-0.7,1.1-1.2,1.5l0,0l0,0c-0.6,0.4-1.2,0.5-1.9,0.5l0,0l0,0c-0.7,0-1.3-0.2-1.8-0.5l0,0l0,0c-0.5-0.3-1-0.8-1.3-1.3l0,0
		l0,0c-0.3-0.6-0.5-1.2-0.5-1.9l0,0l0,0c0-0.7,0.2-1.3,0.5-1.9l0,0l0,0c0.3-0.6,0.7-1,1.3-1.3l0,0l0,0c0.5-0.3,1.1-0.5,1.8-0.5l0,0
		l0,0c0.7,0,1.3,0.2,1.9,0.5l0,0l0,0c0.6,0.4,1,0.8,1.2,1.5l0,0V3.2z M47,13.2L47,13.2c0.6,0,1.1-0.1,1.6-0.4l0,0l0,0
		c0.5-0.3,0.8-0.7,1.1-1.2l0,0l0,0c0.3-0.5,0.4-1.1,0.4-1.7l0,0l0,0c0-0.6-0.1-1.2-0.4-1.7l0,0l0,0c-0.3-0.5-0.6-0.9-1.1-1.1l0,0
		l0,0c-0.5-0.3-1-0.4-1.6-0.4l0,0l0,0c-0.6,0-1.1,0.1-1.6,0.4l0,0l0,0c-0.5,0.3-0.8,0.7-1.1,1.1l0,0l0,0c-0.3,0.5-0.4,1.1-0.4,1.7
		l0,0l0,0c0,0.6,0.1,1.2,0.4,1.7l0,0l0,0c0.3,0.5,0.6,0.9,1.1,1.2l0,0l0,0C45.9,13,46.4,13.2,47,13.2L47,13.2z M53.5,13.6L53.5,13.6
		c-0.1,0-0.2,0-0.3-0.1l0,0l0,0c-0.1-0.1-0.1-0.2-0.1-0.3l0,0l0,0c0-0.1,0-0.2,0.1-0.3l0,0l0,0c0.1-0.1,0.2-0.1,0.3-0.1l0,0l0,0
		c0.1,0,0.2,0,0.3,0.1l0,0l0,0c0.1,0.1,0.1,0.2,0.1,0.3l0,0l0,0c0,0.1,0,0.2-0.1,0.3l0,0l0,0C53.7,13.5,53.6,13.6,53.5,13.6
		L53.5,13.6z M59.8,6.2L59.8,6.2c0.9,0,1.6,0.3,2.1,0.8l0,0l0,0c0.5,0.5,0.8,1.3,0.8,2.3l0,0v4.3h-0.5V9.3l0,0c0-0.9-0.2-1.5-0.6-2
		l0,0l0,0c-0.4-0.5-1.1-0.7-1.9-0.7l0,0l0,0c-0.9,0-1.6,0.3-2.1,0.8l0,0l0,0c-0.5,0.5-0.8,1.3-0.8,2.2l0,0v3.9h-0.5V6.3h0.5v1.8l0,0
		c0.2-0.6,0.6-1,1.1-1.3l0,0l0,0C58.5,6.4,59.1,6.2,59.8,6.2L59.8,6.2z M65.7,13.6V6.3h0.5v7.3H65.7z M66,4.4L66,4.4
		c-0.1,0-0.2,0-0.3-0.1l0,0l0,0c-0.1-0.1-0.1-0.2-0.1-0.3l0,0l0,0c0-0.1,0-0.2,0.1-0.3l0,0l0,0c0.1-0.1,0.2-0.1,0.3-0.1l0,0l0,0
		c0.1,0,0.2,0,0.3,0.1l0,0l0,0c0.1,0.1,0.1,0.2,0.1,0.3l0,0l0,0c0,0.1,0,0.2-0.1,0.3l0,0l0,0C66.2,4.3,66.1,4.4,66,4.4L66,4.4z
		 M72.7,6.2L72.7,6.2c0.9,0,1.6,0.3,2.2,0.8l0,0l0,0c0.5,0.5,0.8,1.3,0.8,2.3l0,0v4.3h-0.5V9.3l0,0c0-0.9-0.2-1.5-0.7-2l0,0l0,0
		c-0.4-0.5-1.1-0.7-1.9-0.7l0,0l0,0c-0.9,0-1.6,0.3-2.1,0.8l0,0l0,0C70,8,69.8,8.7,69.8,9.6l0,0v3.9h-0.5V6.3h0.5v1.8l0,0
		c0.2-0.6,0.6-1,1.1-1.3l0,0l0,0C71.4,6.4,72,6.2,72.7,6.2L72.7,6.2z M77.4,16.3L77.4,16.3c-0.3,0-0.6,0-0.8-0.1l0,0l0,0
		c-0.3-0.1-0.5-0.2-0.7-0.4l0,0l0.2-0.3l0,0c0.3,0.3,0.7,0.4,1.2,0.4l0,0l0,0c0.4,0,0.8-0.1,1-0.4l0,0l0,0c0.2-0.3,0.3-0.6,0.3-1.1
		l0,0V6.3h0.5v8.1l0,0c0,0.6-0.2,1-0.5,1.4l0,0l0,0C78.4,16.1,78,16.3,77.4,16.3L77.4,16.3z M79,4.4L79,4.4c-0.1,0-0.2,0-0.3-0.1
		l0,0l0,0c-0.1-0.1-0.1-0.2-0.1-0.3l0,0l0,0c0-0.1,0-0.2,0.1-0.3l0,0l0,0c0.1-0.1,0.2-0.1,0.3-0.1l0,0l0,0c0.1,0,0.2,0,0.3,0.1l0,0
		l0,0c0.1,0.1,0.1,0.2,0.1,0.3l0,0l0,0c0,0.1,0,0.2-0.1,0.3l0,0l0,0C79.2,4.3,79.1,4.4,79,4.4L79,4.4z M84.7,6.2L84.7,6.2
		c0.9,0,1.5,0.2,2,0.7l0,0l0,0c0.5,0.4,0.7,1.1,0.7,2l0,0v4.7H87v-1.5l0,0c-0.2,0.5-0.6,0.8-1,1.1l0,0l0,0c-0.5,0.3-1,0.4-1.7,0.4
		l0,0l0,0c-0.8,0-1.5-0.2-1.9-0.6l0,0l0,0c-0.5-0.4-0.7-0.9-0.7-1.5l0,0l0,0c0-0.6,0.2-1.1,0.6-1.4l0,0l0,0c0.4-0.4,1.1-0.5,2-0.5
		l0,0h2.7V8.9l0,0c0-0.7-0.2-1.3-0.6-1.6l0,0l0,0c-0.4-0.4-0.9-0.6-1.7-0.6l0,0l0,0c-0.5,0-1,0.1-1.4,0.3l0,0l0,0
		c-0.4,0.2-0.8,0.4-1.2,0.7l0,0l-0.2-0.3l0,0c0.4-0.3,0.8-0.6,1.3-0.8l0,0l0,0C83.6,6.3,84.2,6.2,84.7,6.2L84.7,6.2z M84.3,13.2
		L84.3,13.2c1.3,0,2.2-0.6,2.7-1.8l0,0V9.9h-2.7l0,0c-0.8,0-1.3,0.1-1.7,0.4l0,0l0,0c-0.3,0.3-0.5,0.7-0.5,1.2l0,0l0,0
		c0,0.5,0.2,0.9,0.6,1.2l0,0l0,0C83.1,13.1,83.6,13.2,84.3,13.2L84.3,13.2z"/>
</g>
<g transform="matrix(1.571499501624515,0,0,1.571499501624515,71.42502491877424,42.8263635044519)">
	
		<linearGradient id="SVGID_1_" gradientUnits="userSpaceOnUse" x1="-138.5624" y1="258.9886" x2="-137.5624" y2="258.9886" gradientTransform="matrix(65.2796 33.2834 30.4404 -71.3765 1182.2217 23137.5469)">
		<stop  offset="0" style="stop-color:#CB7A80"/>
		<stop  offset="1" style="stop-color:#F3E4DB"/>
	</linearGradient>
	<path class="st0" d="M65.3,61.5L59,58.7c-2.5-1.1-2.8-2.7-2.8-4.5c3.8-2.5,6.7-7.6,6.7-15.3c0-18.7-25.8-18.7-25.8,0
		c0,7.6,2.9,12.7,6.7,15.3c0,1.8-0.3,3.4-2.8,4.5l-6.3,2.8c-7.1,3.2-7.6,4.4-7.6,13.5h45.8C72.9,65.9,72.4,64.7,65.3,61.5z
		 M39.6,39.5c0,0,3.7-4.1,10.4-4.1s10.4,4.1,10.4,4.1s-3.7,4.2-10.4,4.2S39.6,39.5,39.6,39.5z"/>
</g>
</svg>
