<svg id="Layer_1" data-name="Layer 1" xmlns="http://www.w3.org/2000/svg" width="75.86" height="134.29" viewBox="0 0 75.86 134.29"><title>dotthei1</title><path d="M39.09,58.32h-28V44.75H55.68v81H83.86v13.66H8V125.7h31.1ZM44.84,5.07a13,13,0,0,1,5.09,1A12.36,12.36,0,0,1,54,8.84a13.49,13.49,0,0,1,2.73,4.1,12.66,12.66,0,0,1,1,5,12.78,12.78,0,0,1-1,5A13.2,13.2,0,0,1,54,27.12a12.06,12.06,0,0,1-4.1,2.78,13.58,13.58,0,0,1-10.18,0,12.06,12.06,0,0,1-4.1-2.78A13.2,13.2,0,0,1,32.92,23a12.78,12.78,0,0,1-1-5,12.66,12.66,0,0,1,1-5,13.49,13.49,0,0,1,2.73-4.1,12.36,12.36,0,0,1,4.1-2.78A13,13,0,0,1,44.84,5.07Z" transform="translate(-7.99 -5.07)"/></svg>