<svg id="Layer_1" data-name="Layer 1" xmlns="http://www.w3.org/2000/svg" xmlns:xlink="http://www.w3.org/1999/xlink" width="300" height="142.11" viewBox="0 0 300 142.11"><defs><style>.cls-1{fill:url(#linear-gradient);}</style><linearGradient id="linear-gradient" x1="-146.33" y1="372.83" x2="-145.33" y2="372.83" gradientTransform="matrix(65.28, 33.28, 30.44, -71.38, -1693.06, 31509.99)" gradientUnits="userSpaceOnUse"><stop offset="0" stop-color="#cb7a80"/><stop offset="1" stop-color="#f3e4db"/></linearGradient></defs><title>logo</title><path d="M29.73,102.91h0a4.17,4.17,0,0,0-3.19,1.14h0a4.82,4.82,0,0,0-1.08,3.4h0v3.7h7.17v1.2H25.46v20.48H24.09V112.35H20v-1.2h4.09V107.3h0a5.62,5.62,0,0,1,1.46-4.09h0a5.43,5.43,0,0,1,4.09-1.52h0a7.57,7.57,0,0,1,2.42.39h0a4.68,4.68,0,0,1,1.88,1.07h0l-.68,1h0a5.09,5.09,0,0,0-3.53-1.29Zm8.6,13.47h0a8,8,0,0,1,3.14-4h0A9.46,9.46,0,0,1,46.78,111h0v1.38h-.36a7.51,7.51,0,0,0-5.91,2.39h0a9.55,9.55,0,0,0-2.12,6.56h0v11.53H37V111.15h1.31ZM61.41,133h0A10.81,10.81,0,0,1,56,131.57h0a10.12,10.12,0,0,1-3.85-3.91h0a11.72,11.72,0,0,1-1.37-5.7h0a11.66,11.66,0,0,1,1.37-5.67h0A10.12,10.12,0,0,1,56,112.38h0A10.63,10.63,0,0,1,61.41,111h0a10.79,10.79,0,0,1,5.49,1.41h0a9.9,9.9,0,0,1,3.79,3.91h0A11.55,11.55,0,0,1,72.07,122h0a11.62,11.62,0,0,1-1.38,5.7h0a9.9,9.9,0,0,1-3.79,3.91h0A11,11,0,0,1,61.41,133Zm0-1.26h0a9.35,9.35,0,0,0,4.74-1.22h0A8.63,8.63,0,0,0,69.47,127h0A10.51,10.51,0,0,0,70.69,122h0a10.34,10.34,0,0,0-1.22-5h0a8.68,8.68,0,0,0-3.32-3.4h0a9.17,9.17,0,0,0-4.74-1.25h0a9.21,9.21,0,0,0-4.75,1.25h0a8.94,8.94,0,0,0-3.31,3.4h0a10.23,10.23,0,0,0-1.23,5h0A10.41,10.41,0,0,0,53.35,127h0a8.88,8.88,0,0,0,3.31,3.43h0a9.38,9.38,0,0,0,4.75,1.22ZM89.11,111h0a8.68,8.68,0,0,1,6.42,2.36h0q2.32,2.36,2.33,6.75h0v12.75H96.49V120.17h0a8.19,8.19,0,0,0-1.94-5.88h0a7.32,7.32,0,0,0-5.56-2h0a8.45,8.45,0,0,0-6.39,2.42h0a8.83,8.83,0,0,0-2.32,6.44h0v11.71H78.87V111.15h1.35v5.29h0a8.34,8.34,0,0,1,3.37-4h0A10.11,10.11,0,0,1,89.11,111Zm27.32,19.47.69,1h0a5,5,0,0,1-1.92,1.11h0a7.51,7.51,0,0,1-2.41.39h0a5.51,5.51,0,0,1-4.09-1.47h0a5.64,5.64,0,0,1-1.44-4.09h0v-15h-4.09v-1.2h4.09v-4.77h1.38v4.77h7.16v1.2h-7.16v14.83h0a4.87,4.87,0,0,0,1.1,3.41h0a4.12,4.12,0,0,0,3.17,1.16h0a5.05,5.05,0,0,0,3.52-1.31ZM133.51,111h0a8.57,8.57,0,0,1,6.38,2.36h0c1.58,1.57,2.36,3.82,2.36,6.75h0v12.75h-1.37V120.17h0a8.11,8.11,0,0,0-2-5.88h0a7.26,7.26,0,0,0-5.52-2h0a8.42,8.42,0,0,0-6.39,2.42h0a8.77,8.77,0,0,0-2.36,6.44h0v11.71h-1.37V111.15h1.34v5.29h0a8.39,8.39,0,0,1,3.37-4h0a10.08,10.08,0,0,1,5.53-1.47Zm35.22-9.16h1.41v31h-1.35v-5.94h0a9.53,9.53,0,0,1-3.7,4.44h0a10.12,10.12,0,0,1-5.67,1.62h0a10.63,10.63,0,0,1-5.37-1.38h0a9.87,9.87,0,0,1-3.83-3.91h0a11.52,11.52,0,0,1-1.4-5.7h0a11.46,11.46,0,0,1,1.4-5.67h0a9.87,9.87,0,0,1,3.83-3.91h0a10.45,10.45,0,0,1,5.37-1.41h0a10.3,10.3,0,0,1,5.64,1.59h0a9.4,9.4,0,0,1,3.67,4.38h0Zm-9.25,29.88h0a9.41,9.41,0,0,0,4.75-1.22h0a9,9,0,0,0,3.31-3.43h0a10.61,10.61,0,0,0,1.19-5.08h0a10.44,10.44,0,0,0-1.19-5h0a9,9,0,0,0-3.31-3.4h0a9.23,9.23,0,0,0-4.75-1.25h0a9.13,9.13,0,0,0-4.75,1.25h0a8.87,8.87,0,0,0-3.34,3.4h0a10.44,10.44,0,0,0-1.2,5h0a10.62,10.62,0,0,0,1.2,5.08h0a8.81,8.81,0,0,0,3.34,3.43h0a9.31,9.31,0,0,0,4.75,1.22ZM178.73,133h0a1.33,1.33,0,0,1-1-.39h0a1.34,1.34,0,0,1-.39-1h0a1.33,1.33,0,0,1,.42-1h0a1.37,1.37,0,0,1,.95-.39h0a1.34,1.34,0,0,1,1,.39h0a1.38,1.38,0,0,1,.39,1h0a1.34,1.34,0,0,1-.39,1h0a1.34,1.34,0,0,1-1,.39Zm18.84-22h0a8.68,8.68,0,0,1,6.42,2.36h0q2.32,2.36,2.33,6.75h0v12.75H205V120.17h0a8.19,8.19,0,0,0-1.94-5.88h0a7.32,7.32,0,0,0-5.56-2h0a8.45,8.45,0,0,0-6.39,2.42h0a8.83,8.83,0,0,0-2.32,6.44h0v11.71h-1.41V111.15h1.35v5.29h0a8.34,8.34,0,0,1,3.37-4h0a10.11,10.11,0,0,1,5.52-1.47Zm17.77,21.86V111.15h1.4v21.68Zm.68-27.38h0a1.35,1.35,0,0,1-1-.39h0a1.24,1.24,0,0,1-.42-1h0a1.41,1.41,0,0,1,.39-1h0a1.32,1.32,0,0,1,1-.39h0a1.37,1.37,0,0,1,1,.39h0a1.32,1.32,0,0,1,.42,1h0a1.3,1.3,0,0,1-.42,1h0a1.32,1.32,0,0,1-1,.42ZM236.23,111h0a8.68,8.68,0,0,1,6.42,2.36h0q2.32,2.36,2.33,6.75h0v12.75h-1.37V120.17h0a8.19,8.19,0,0,0-1.94-5.88h0a7.32,7.32,0,0,0-5.56-2h0a8.41,8.41,0,0,0-6.38,2.42h0a8.8,8.8,0,0,0-2.33,6.44h0v11.71H226V111.15h1.35v5.29h0a8.34,8.34,0,0,1,3.37-4h0a10.11,10.11,0,0,1,5.52-1.47Zm14,30.1h0a7.81,7.81,0,0,1-2.51-.39h0a4.45,4.45,0,0,1-1.94-1.11h0l.71-1h0a5.16,5.16,0,0,0,3.65,1.28h0a3.94,3.94,0,0,0,3.07-1.19h0a4.94,4.94,0,0,0,1.05-3.41h0V111.15h1.4v24.27h0a5.77,5.77,0,0,1-1.43,4.12h0a5.22,5.22,0,0,1-4,1.53Zm4.71-35.62h0a1.35,1.35,0,0,1-.95-.39h0a1.24,1.24,0,0,1-.42-1h0a1.41,1.41,0,0,1,.39-1h0a1.32,1.32,0,0,1,1-.39h0a1.37,1.37,0,0,1,1,.39h0a1.32,1.32,0,0,1,.42,1h0a1.3,1.3,0,0,1-.42,1h0a1.32,1.32,0,0,1-1,.42ZM272,111h0a8.23,8.23,0,0,1,6,2h0A7.79,7.79,0,0,1,280,118.8h0v14h-1.34V128.5h0a7.68,7.68,0,0,1-3.11,3.28h0A9.85,9.85,0,0,1,270.6,133h0a8.81,8.81,0,0,1-5.71-1.68h0a5.4,5.4,0,0,1-2.06-4.41h0a5.49,5.49,0,0,1,1.88-4.3h0q1.89-1.65,6-1.65h7.91V118.8h0a6.58,6.58,0,0,0-1.7-4.9h0a6.76,6.76,0,0,0-5-1.67h0a11.54,11.54,0,0,0-4.3.8h0a10.62,10.62,0,0,0-3.43,2.12h0l-.75-1h0a11.24,11.24,0,0,1,3.82-2.33h0A13.25,13.25,0,0,1,272,111Zm-1.28,20.81h0q5.85,0,7.94-5.22h0v-4.51h-7.91a7.86,7.86,0,0,0-5,1.28h0a4.17,4.17,0,0,0-1.55,3.44h0a4.33,4.33,0,0,0,1.73,3.67h0a7.6,7.6,0,0,0,4.75,1.34Z"/><path class="cls-1" d="M174,62.47,164.14,58c-3.86-1.7-4.32-4.26-4.32-7.07,6-4,10.48-12,10.48-24,0-29.4-40.6-29.4-40.6,0,0,12,4.52,20,10.48,24,0,2.81-.46,5.37-4.32,7.07L126,62.47c-11.2,5-12,6.94-12,21.22h72C186,69.41,185.23,67.51,174,62.47ZM133.63,28a23.89,23.89,0,0,1,32.74,0,23.58,23.58,0,0,1-32.74,0Z"/></svg>