<svg id="Layer_1" data-name="Layer 1" xmlns="http://www.w3.org/2000/svg" xmlns:xlink="http://www.w3.org/1999/xlink" width="214" height="230" viewBox="0 0 214 230"><defs><style>.cls-1{fill:url(#linear-gradient);}</style><linearGradient id="linear-gradient" x1="-328.61" y1="186.65" x2="-325.83" y2="186.65" gradientTransform="matrix(102.59, 52.3, -47.84, 112.17, 42619.87, -3676.13)" gradientUnits="userSpaceOnUse"><stop offset="0" stop-color="#cb7a80"/><stop offset="1" stop-color="#f3e4db"/></linearGradient></defs><title>ninja_logo_alene</title><path class="cls-1" d="M174.81,165.79,147.3,153.57c-10.92-4.81-12.23-11.79-12.23-19.65,16.6-10.92,29.26-33.19,29.26-66.82,0-81.65-112.66-81.65-112.66,0,0,33.19,12.66,55.46,29.26,66.82,0,7.86-1.31,14.84-12.23,19.65L41.19,165.79C10.18,179.77,8,185,8,224.75H208C208,185,205.82,179.77,174.81,165.79ZM62.59,69.72S78.74,51.82,108,51.82s45.41,17.9,45.41,17.9S137.26,88.07,108,88.07,62.59,69.72,62.59,69.72Z"/></svg>