<?xml version="1.0" encoding="utf-8"?>
<!-- Generator: Adobe Illustrator 23.0.2, SVG Export Plug-In . SVG Version: 6.00 Build 0)  -->
<svg version="1.1" id="Layer_1" xmlns="http://www.w3.org/2000/svg" xmlns:xlink="http://www.w3.org/1999/xlink" x="0px" y="0px"
	 viewBox="0 0 215 236" style="enable-background:new 0 0 215 236;" xml:space="preserve">
<style type="text/css">
	.st0{fill:url(#SVGID_1_);}
</style>
<g id="d5f5a5e2-7bf1-4e09-966b-6501d2f5f5a5" transform="matrix(4.389925129865152,0,0,4.389925129865152,-69.49625649325762,-69.24438473988643)">
	
		<linearGradient id="SVGID_1_" gradientUnits="userSpaceOnUse" x1="-27.6876" y1="111.3027" x2="-26.6876" y2="111.3027" gradientTransform="matrix(182.3562 92.976 85.0341 -199.3877 -4404.6865 24799.6191)">
		<stop  offset="0" style="stop-color:#CB7A80"/>
		<stop  offset="1" style="stop-color:#F3E4DB"/>
	</linearGradient>
	<path class="st0" d="M55.5,54.4l-6.3-2.8c-2.5-1.1-2.8-2.7-2.8-4.5c3.8-2.5,6.7-7.6,6.7-15.3c0-18.7-25.8-18.7-25.8,0
		c0,7.6,2.9,12.7,6.7,15.3c0,1.8-0.3,3.4-2.8,4.5l-6.3,2.8c-7.1,3.2-7.6,4.4-7.6,13.5h45.8C63.1,58.9,62.6,57.6,55.5,54.4z
		 M29.8,32.5c0,0,3.7-4.1,10.4-4.1s10.4,4.1,10.4,4.1s-3.7,4.2-10.4,4.2S29.8,32.5,29.8,32.5z"/>
</g>
</svg>
